<?xml version="1.0" standalone="no"?>
<!DOCTYPE svg PUBLIC "-//W3C//DTD SVG 20010904//EN"
 "http://www.w3.org/TR/2001/REC-SVG-20010904/DTD/svg10.dtd">
<svg version="1.0" xmlns="http://www.w3.org/2000/svg"
 width="64.000000pt" height="64.000000pt" viewBox="0 0 64.000000 64.000000"
 preserveAspectRatio="xMidYMid meet">

<g transform="translate(0.000000,64.000000) scale(0.100000,-0.100000)"
fill="#000000" stroke="none">
<path d="M283 552 c-22 -14 -273 -459 -273 -484 0 -14 9 -33 21 -44 20 -18 40
-19 289 -19 249 0 269 1 289 19 12 11 21 30 21 44 0 25 -251 470 -273 484 -7
4 -23 8 -37 8 -14 0 -30 -4 -37 -8z m189 -247 c70 -121 128 -228 128 -237 0
-33 -34 -38 -280 -38 -244 0 -280 5 -280 37 0 14 165 310 237 426 43 68 53 58
195 -188z"/>
<path d="M305 367 c-4 -8 -5 -45 -3 -83 2 -53 6 -69 18 -69 12 0 15 15 15 79
0 55 -4 81 -12 83 -7 3 -15 -2 -18 -10z"/>
<path d="M306 143 c-8 -21 10 -41 24 -27 11 11 3 44 -10 44 -4 0 -11 -8 -14
-17z"/>
</g>
</svg>
