<svg width="91" height="31" viewBox="0 0 91 31" fill="none" xmlns="http://www.w3.org/2000/svg">
<path d="M0 30.9775C2.54568 28.3989 4.86701 26.0776 7.14646 23.7114C7.74474 23.0892 8.42678 23.0563 9.1866 23.0563C16.7648 23.0563 24.0439 23.0563 31.6221 23.0563C33.055 23.0563 34.2246 22.1499 34.2246 20.6542C34.2246 19.4576 33.055 18.4226 31.6221 18.4226C25.6393 18.4226 19.7612 18.4226 13.7784 18.4226C12.0914 18.4333 10.4268 18.0361 8.92634 17.2649C6.27596 15.9009 4.98069 13.3761 5.6358 10.4595C5.94624 9.06099 6.43168 7.70718 7.08065 6.43007C8.81865 3.08568 11.8938 1.50024 15.3668 0.668628C17.1032 0.265965 18.8792 0.0592644 20.6616 0.0523986C29.232 -0.00742949 37.8053 0.0254758 46.3877 0.0224844H48.0928C47.68 0.501109 47.4496 0.803241 47.1804 1.07247C45.2121 3.04679 43.2048 4.98821 41.2724 6.99844C40.9744 7.32536 40.6076 7.58212 40.1984 7.75023C39.7893 7.91835 39.3479 7.99362 38.9062 7.97064C32.1795 7.93874 25.4508 7.93874 18.7202 7.97064C17.9801 7.98955 17.245 8.09701 16.5305 8.29072C15.3339 8.58986 14.9899 9.60993 14.7356 10.633C14.5771 11.3031 15.3339 12.1586 16.1446 12.2663C17.13 12.4051 18.1231 12.483 19.1181 12.4996C25.1009 12.5475 31.0837 12.5595 37.0665 12.5983C38.9622 12.6016 40.8163 13.1555 42.4031 14.1928C44.4971 15.5568 44.9817 17.7316 44.548 19.9901C43.3215 26.3558 39.3459 29.8617 33.052 30.6724C31.2294 30.8873 29.395 30.9872 27.5598 30.9715C18.8369 30.9985 10.1169 30.9715 1.39399 30.9715L0 30.9775Z" fill="white"/>
<path d="M46.9258 18.4091C46.5609 14.9959 45.4929 12.1272 42.678 10.0332C43.1686 9.53065 43.5754 9.11484 43.9763 8.70502C46.6177 6.06062 49.2681 3.4222 51.8945 0.765834C52.1031 0.523951 52.3617 0.330216 52.6525 0.198002C52.9433 0.0657888 53.2593 -0.00175462 53.5787 3.46413e-05C65.6899 0.0219716 77.8021 0.0299492 89.9152 0.0239664C90.1094 0.0415536 90.3022 0.0715285 90.4926 0.113708C90.1934 0.466694 89.9511 0.762843 89.6879 1.02908C87.7525 2.9705 85.7811 4.87602 83.8935 6.86231C83.5736 7.23078 83.1743 7.52184 82.7255 7.71357C82.2768 7.90529 81.7904 7.99267 81.303 7.96913C71.8831 7.92426 62.4572 7.9452 53.0402 7.9452C52.6424 7.9452 52.2415 7.9123 51.8437 7.9452C50.1775 8.11272 49.0497 10.0661 49.8484 11.5349C50.0757 11.9477 50.6441 12.2409 51.1197 12.4323C51.5146 12.5819 52.0172 12.5011 52.4509 12.5011C60.1777 12.5011 67.9045 12.4832 75.6283 12.531C77.6632 12.5023 79.6971 12.6394 81.7098 12.9408C84.2256 13.3746 86.3226 14.5742 86.9209 17.3502C87.1176 18.122 87.1593 18.9253 87.0435 19.7134C85.9456 25.2924 83.1547 28.9419 77.2317 30.3448C75.3962 30.7606 73.5197 30.9683 71.6378 30.9641C62.2178 31.0239 52.7919 30.991 43.378 30.991C42.9502 30.991 40.7276 30.9521 40.1204 30.9252C43.9763 29.1662 45.2955 26.103 46.1301 23.1475C55.7893 23.1475 65.1373 23.0667 74.6052 23.0667C76.4689 23.0667 77.6684 22.4688 77.6684 20.7843C77.6684 18.9954 75.9813 18.451 74.2642 18.451C65.7926 18.4311 57.3169 18.4311 48.8373 18.451L46.9258 18.4091Z" fill="#FF6915"/>
</svg>
