<svg width="852" height="304" viewBox="0 0 852 304" fill="none" xmlns="http://www.w3.org/2000/svg">
<path d="M94.0923 303.876C68.6764 302.867 47.8824 295.912 31.6232 282.996C28.5202 280.528 21.1261 273.13 18.6454 270.009C12.0521 261.719 7.56949 253.65 4.57964 244.698C-4.62056 217.142 0.114457 180.981 18.1232 141.295C33.5424 107.32 57.335 73.6223 98.8447 26.9518C104.959 20.0843 123.168 0 123.286 0C123.329 0 122.337 1.71902 121.088 3.81234C110.295 21.8904 101.06 43.1845 96.029 61.6196C87.9472 91.1999 88.9221 116.585 98.8839 136.269C105.756 149.83 117.537 161.576 130.784 168.069C153.976 179.432 187.931 180.372 229.397 170.819C232.252 170.158 373.719 132.605 543.771 87.3658C713.822 42.1226 852.978 5.13532 853 5.16577C853.048 5.20501 457.922 174.279 252.807 261.993C220.323 275.88 211.636 279.388 196.365 284.749C157.327 298.458 122.359 304.999 94.0923 303.876Z" fill="#F6F6F6"/>
</svg>
