<svg width="826" height="294" viewBox="0 0 826 294" fill="none" xmlns="http://www.w3.org/2000/svg">
<path d="M91.114 293.88C66.5026 292.904 46.3668 286.178 30.6222 273.687C27.6174 271.3 20.4574 264.145 18.0552 261.127C11.6706 253.11 7.3299 245.307 4.43469 236.649C-4.4743 209.999 0.110834 175.028 17.5495 136.648C32.4807 103.789 55.5202 71.2005 95.716 26.0652C101.637 19.4236 119.27 0 119.383 0C119.426 0 118.465 1.66247 117.255 3.68693C106.804 21.1703 97.861 41.764 92.9893 59.5926C85.1634 88.1999 86.1074 112.75 95.7539 131.786C102.408 144.901 113.816 156.261 126.645 162.54C149.102 173.529 181.982 174.439 222.136 165.2C224.9 164.56 361.89 128.243 526.559 84.4919C691.227 40.737 825.979 4.96639 826 4.99584C826.046 5.03379 443.428 168.546 244.805 253.375C213.349 266.805 204.937 270.197 190.15 275.383C152.347 288.64 118.486 294.966 91.114 293.88Z" fill="white"/>
</svg>
