<svg width="0" height="0" class="hidden">
    <symbol fill="none" xmlns="http://www.w3.org/2000/svg" viewBox="0 0 23 23" id="address">
        <path opacity="0.9" d="M11.0188 20.9835C10.753 20.9863 10.4894 20.936 10.2433 20.8356C9.99721 20.7351 9.77368 20.5865 9.5858 20.3985L5.3418 16.1555C4.35116 15.1644 3.63823 13.9304 3.27438 12.5772C2.91052 11.2239 2.90852 9.79884 3.26856 8.44457C3.6286 7.09029 4.33805 5.85434 5.3259 4.86044C6.31375 3.86654 7.54535 3.14955 8.8974 2.78125C10.2495 2.41295 11.6745 2.40626 13.03 2.76184C14.3854 3.11742 15.6237 3.8228 16.6209 4.80738C17.618 5.79195 18.339 7.02118 18.7118 8.37201C19.0845 9.72285 19.0959 11.1479 18.7448 12.5045M14.9988 21.4985L19.9988 16.4985M19.9988 16.4985V20.9985M19.9988 16.4985H15.4988M7.9988 10.4985C7.9988 11.2942 8.31487 12.0572 8.87748 12.6198C9.44009 13.1824 10.2032 13.4985 10.9988 13.4985C11.7945 13.4985 12.5575 13.1824 13.1201 12.6198C13.6827 12.0572 13.9988 11.2942 13.9988 10.4985C13.9988 9.70286 13.6827 8.9398 13.1201 8.37719C12.5575 7.81458 11.7945 7.49851 10.9988 7.49851C10.2032 7.49851 9.44009 7.81458 8.87748 8.37719C8.31487 8.9398 7.9988 9.70286 7.9988 10.4985Z" stroke="#C7C7C7" stroke-width="1.6" stroke-linecap="round" stroke-linejoin="round"></path>
    </symbol>
    <symbol fill="none" xmlns="http://www.w3.org/2000/svg" viewBox="0 0 23 23" id="change-password">
        <path opacity="0.9" d="M12.0028 11.5C11.7375 11.5 11.4832 11.3946 11.2957 11.2071C11.1081 11.0196 11.0028 10.7652 11.0028 10.5C11.0028 10.2348 11.1081 9.98043 11.2957 9.79289C11.4832 9.60536 11.7375 9.5 12.0028 9.5C12.268 9.5 12.5223 9.60536 12.7099 9.79289C12.8974 9.98043 13.0028 10.2348 13.0028 10.5C13.0028 10.7652 12.8974 11.0196 12.7099 11.2071C12.5223 11.3946 12.268 11.5 12.0028 11.5ZM12.0028 11.5V14M12.0028 2.5C14.3386 4.56658 17.3872 5.64257 20.5028 5.5C20.9564 7.04302 21.0951 8.66147 20.9109 10.2592C20.7266 11.8569 20.2231 13.4013 19.4302 14.8005C18.6373 16.1998 17.5712 17.4254 16.2952 18.4045C15.0193 19.3836 13.5596 20.0962 12.0028 20.5C10.446 20.0962 8.98624 19.3836 7.71031 18.4045C6.43437 17.4254 5.36827 16.1998 4.57536 14.8005C3.78245 13.4013 3.2789 11.8569 3.09464 10.2592C2.91038 8.66147 3.04917 7.04302 3.50276 5.5C6.61829 5.64257 9.66693 4.56658 12.0028 2.5Z" stroke="#C7C7C7" stroke-width="1.6" stroke-linecap="round" stroke-linejoin="round"></path>
    </symbol>
    <symbol fill="none" xmlns="http://www.w3.org/2000/svg" viewBox="0 0 23 23" id="favorite-products">
        <path opacity="0.9" d="M18.6514 5.32294C18.2253 4.90361 17.719 4.5709 17.1615 4.34388C16.604 4.11686 16.0063 4 15.4027 4C14.799 4 14.2013 4.11686 13.6439 4.34388C13.0864 4.5709 12.5801 4.90361 12.154 5.32294L11.5 5.97264L10.846 5.32294C10.4199 4.90361 9.91362 4.5709 9.35614 4.34388C8.79866 4.11686 8.20096 4 7.59733 4C6.9937 4 6.39601 4.11686 5.83852 4.34388C5.28104 4.5709 4.77474 4.90361 4.34865 5.32294C2.54807 7.0888 2.43766 10.0708 4.70537 12.3364L11.5 19L18.2946 12.3364C20.5623 10.0708 20.4519 7.0888 18.6514 5.32294Z" stroke="#C7C7C7" stroke-width="1.6" stroke-linecap="round" stroke-linejoin="round"></path>
    </symbol>
    <symbol fill="none" xmlns="http://www.w3.org/2000/svg" viewBox="0 0 23 23" id="logout">
        <path opacity="0.9" d="M14 7.5V5.5C14 4.96957 13.7893 4.46086 13.4142 4.08579C13.0391 3.71071 12.5304 3.5 12 3.5H5C4.46957 3.5 3.96086 3.71071 3.58579 4.08579C3.21071 4.46086 3 4.96957 3 5.5V17.5C3 18.0304 3.21071 18.5391 3.58579 18.9142C3.96086 19.2893 4.46957 19.5 5 19.5H12C12.5304 19.5 13.0391 19.2893 13.4142 18.9142C13.7893 18.5391 14 18.0304 14 17.5V15.5M9 11.5H21M21 11.5L18 8.5M21 11.5L18 14.5" stroke="#C7C7C7" stroke-width="1.6" stroke-linecap="round" stroke-linejoin="round"></path>
    </symbol>
    <symbol fill="none" xmlns="http://www.w3.org/2000/svg" viewBox="0 0 23 23" id="my-orders">
        <path opacity="0.9" d="M13 4.5H21M13 8.5H18M13 14.5H21M13 18.5H18M3 4.5C3 4.23478 3.10536 3.98043 3.29289 3.79289C3.48043 3.60536 3.73478 3.5 4 3.5H8C8.26522 3.5 8.51957 3.60536 8.70711 3.79289C8.89464 3.98043 9 4.23478 9 4.5V8.5C9 8.76522 8.89464 9.01957 8.70711 9.20711C8.51957 9.39464 8.26522 9.5 8 9.5H4C3.73478 9.5 3.48043 9.39464 3.29289 9.20711C3.10536 9.01957 3 8.76522 3 8.5V4.5ZM3 14.5C3 14.2348 3.10536 13.9804 3.29289 13.7929C3.48043 13.6054 3.73478 13.5 4 13.5H8C8.26522 13.5 8.51957 13.6054 8.70711 13.7929C8.89464 13.9804 9 14.2348 9 14.5V18.5C9 18.7652 8.89464 19.0196 8.70711 19.2071C8.51957 19.3946 8.26522 19.5 8 19.5H4C3.73478 19.5 3.48043 19.3946 3.29289 19.2071C3.10536 19.0196 3 18.7652 3 18.5V14.5Z" stroke="#C7C7C7" stroke-width="1.6" stroke-linecap="round" stroke-linejoin="round"></path>
    </symbol>
    <symbol fill="none" xmlns="http://www.w3.org/2000/svg" viewBox="0 0 23 23" id="user-edit">
        <g clip-path="url(#clip0_147_5696)">
            <path opacity="0.9" d="M3 21.3947V19.1842C3 18.0117 3.46579 16.8872 4.2949 16.0581C5.124 15.2289 6.24852 14.7632 7.42105 14.7632H11.2895M5.21053 5.92105C5.21053 7.09359 5.67631 8.2181 6.50542 9.04721C7.33453 9.87632 8.45904 10.3421 9.63158 10.3421C10.8041 10.3421 11.9286 9.87632 12.7577 9.04721C13.5868 8.2181 14.0526 7.09359 14.0526 5.92105C14.0526 4.74852 13.5868 3.624 12.7577 2.7949C11.9286 1.96579 10.8041 1.5 9.63158 1.5C8.45904 1.5 7.33453 1.96579 6.50542 2.7949C5.67631 3.624 5.21053 4.74852 5.21053 5.92105ZM16.7274 15.4374C16.9429 15.2218 17.1988 15.0509 17.4804 14.9342C17.762 14.8176 18.0639 14.7575 18.3687 14.7575C18.6735 14.7575 18.9753 14.8176 19.257 14.9342C19.5386 15.0509 19.7945 15.2218 20.01 15.4374C20.2255 15.6529 20.3965 15.9088 20.5132 16.1904C20.6298 16.472 20.6899 16.7739 20.6899 17.0787C20.6899 17.3835 20.6298 17.6853 20.5132 17.967C20.3965 18.2486 20.2255 18.5045 20.01 18.72L16.2632 22.5H12.9474V19.1842L16.7274 15.4374Z"  stroke-width="1.6" stroke-linecap="round" stroke-linejoin="round"></path>
        </g>
        <defs>
            <clipPath id="clip0_147_5696">
                <rect width="23" height="23" fill="white"></rect>
            </clipPath>
        </defs>
    </symbol>
    <symbol fill="none" xmlns="http://www.w3.org/2000/svg" viewBox="0 0 23 23" id="my-account">
        <path opacity="0.9" d="M6.168 18.349C6.41551 17.5252 6.92197 16.8032 7.61225 16.29C8.30252 15.7768 9.13985 15.4997 10 15.5H14C14.8613 15.4997 15.6996 15.7774 16.3904 16.2918C17.0812 16.8062 17.5875 17.5298 17.834 18.355M3 11.5C3 12.6819 3.23279 13.8522 3.68508 14.9442C4.13738 16.0361 4.80031 17.0282 5.63604 17.864C6.47177 18.6997 7.46392 19.3626 8.55585 19.8149C9.64778 20.2672 10.8181 20.5 12 20.5C13.1819 20.5 14.3522 20.2672 15.4442 19.8149C16.5361 19.3626 17.5282 18.6997 18.364 17.864C19.1997 17.0282 19.8626 16.0361 20.3149 14.9442C20.7672 13.8522 21 12.6819 21 11.5C21 10.3181 20.7672 9.14778 20.3149 8.05585C19.8626 6.96392 19.1997 5.97177 18.364 5.13604C17.5282 4.30031 16.5361 3.63738 15.4442 3.18508C14.3522 2.73279 13.1819 2.5 12 2.5C10.8181 2.5 9.64778 2.73279 8.55585 3.18508C7.46392 3.63738 6.47177 4.30031 5.63604 5.13604C4.80031 5.97177 4.13738 6.96392 3.68508 8.05585C3.23279 9.14778 3 10.3181 3 11.5ZM9 9.5C9 10.2956 9.31607 11.0587 9.87868 11.6213C10.4413 12.1839 11.2044 12.5 12 12.5C12.7956 12.5 13.5587 12.1839 14.1213 11.6213C14.6839 11.0587 15 10.2956 15 9.5C15 8.70435 14.6839 7.94129 14.1213 7.37868C13.5587 6.81607 12.7956 6.5 12 6.5C11.2044 6.5 10.4413 6.81607 9.87868 7.37868C9.31607 7.94129 9 8.70435 9 9.5Z" stroke-width="1.6" stroke-linecap="round" stroke-linejoin="round"></path>
    </symbol>
    <symbol fill="none" xmlns="http://www.w3.org/2000/svg" viewBox="0 0 69 60" id="upload">
        <path d="M36.0283 14.7459L36.1205 14.7734L36.1245 14.7688C36.5622 14.8481 36.9963 14.5861 37.1249 14.152C38.2966 10.2153 41.9877 7.46512 46.1001 7.46512C46.587 7.46512 46.9818 7.07024 46.9818 6.58338C46.9818 6.0965 46.5869 5.70164 46.1001 5.70164C41.0459 5.70164 36.7987 9.06673 35.435 13.6494C35.2958 14.1162 35.5618 14.6068 36.0283 14.7459Z" fill="black"  stroke-width="0.3"></path>
        <path d="M56.3438 42.4384H51.9534C51.5494 42.4384 51.2217 42.1107 51.2217 41.7067C51.2217 41.3027 51.5494 40.9749 51.9534 40.9749H56.3438C62.3956 40.9749 67.3197 36.0509 67.3197 29.999C67.3197 23.9471 62.3956 19.023 56.3438 19.023H56.2382C56.026 19.023 55.8242 18.9311 55.6852 18.7706C55.5462 18.6101 55.4834 18.3974 55.5138 18.1873C55.5791 17.7315 55.612 17.2737 55.612 16.8279C55.612 11.5829 51.3444 7.31531 46.0995 7.31531C44.059 7.31531 42.1131 7.95296 40.4719 9.15978C40.1112 9.42478 39.599 9.30718 39.3905 8.91047C34.7425 0.0596993 22.6023 -1.12887 16.3082 6.57053C13.6568 9.81417 12.615 14.0336 13.4498 18.146C13.5418 18.6002 13.1942 19.0236 12.7327 19.0236H12.4395C6.3876 19.0236 1.46353 23.9477 1.46353 29.9996C1.46353 36.0514 6.3876 40.9755 12.4395 40.9755H16.8298C17.2338 40.9755 17.5615 41.3032 17.5615 41.7072C17.5615 42.1113 17.2338 42.439 16.8298 42.439H12.4395C5.5805 42.439 0 36.8585 0 29.9995C0 23.3329 5.27155 17.8742 11.8651 17.5731C11.2457 13.3066 12.4301 9.00295 15.1751 5.64437C21.9138 -2.5996 34.828 -1.67556 40.2871 7.51707C42.0287 6.42522 44.0215 5.85244 46.0992 5.85244C52.4538 5.85244 57.4892 11.261 57.0486 17.58C63.5813 17.9463 68.7829 23.3763 68.7829 29.999C68.7829 36.8585 63.2024 42.4384 56.3434 42.4384L56.3438 42.4384Z" fill="#483EA8"></path>
        <path d="M15.85 41.2935C15.85 51.4634 24.1237 59.737 34.2935 59.737C44.4634 59.737 52.737 51.4633 52.737 41.2935C52.737 31.1235 44.4634 22.85 34.2935 22.85C24.1235 22.85 15.85 31.1237 15.85 41.2935ZM17.6138 41.2935C17.6138 32.0966 25.0964 24.6138 34.2935 24.6138C43.4904 24.6138 50.9732 32.0964 50.9732 41.2935C50.9732 50.4904 43.4904 57.9732 34.2935 57.9732C25.0966 57.9732 17.6138 50.4905 17.6138 41.2935Z" fill="black"  stroke-width="0.3"></path>
        <path d="M33.9422 48.6577C33.9422 49.0364 34.2493 49.3435 34.6279 49.3435C35.0065 49.3435 35.3136 49.0368 35.3136 48.6577V34.7292C35.3136 34.3505 35.0066 34.0435 34.6279 34.0435C34.2493 34.0435 33.9422 34.3505 33.9422 34.7292V48.6577Z" fill="black"  stroke-width="0.3"></path>
        <path d="M34.6279 35.7003L30.8272 39.5009L34.6279 35.7003ZM34.6279 35.7003L38.4286 39.501C38.5624 39.6348 38.7384 39.7018 38.9135 39.7019L34.6279 35.7003ZM29.8573 39.501C30.1251 39.7688 30.5595 39.769 30.8271 39.501L38.9135 39.7019C39.0883 39.7018 39.2645 39.6353 39.3984 39.501C39.6663 39.2331 39.6662 38.7991 39.3984 38.5313L35.1127 34.2456C34.8449 33.9778 34.4105 33.9776 34.143 34.2456C34.1429 34.2456 34.1429 34.2457 34.1429 34.2457L29.8573 38.5313C29.5894 38.7991 29.5894 39.2331 29.8573 39.501Z" fill="black"  stroke-width="0.3"></path>
    </symbol>
</svg>