<svg width="46" height="46" viewBox="0 0 46 46" fill="none" xmlns="http://www.w3.org/2000/svg">
<rect width="46" height="46" fill="#272727"/>
<path opacity="0.8" d="M32.1579 17.7742C31.477 18.0737 30.7734 18.2811 30.0243 18.3733C30.7961 17.9124 31.3862 17.1751 31.6586 16.2765C30.9322 16.7143 30.1378 17.0138 29.298 17.1982C28.6171 16.4608 27.6411 16 26.5743 16C24.5089 16 22.852 17.7051 22.852 19.7788C22.852 20.0783 22.8747 20.3548 22.9428 20.6313C19.8559 20.4931 17.1322 18.9724 15.2938 16.6912C13.9773 19.0876 15.4526 21.0691 16.4286 21.7373C15.8385 21.7373 15.2484 21.553 14.749 21.2765C14.749 23.1429 16.0428 24.6866 17.7224 25.0323C17.3592 25.1475 16.5421 25.2166 16.0428 25.1014C16.5194 26.5991 17.9039 27.7051 19.5155 27.7281C18.2444 28.7419 16.3832 29.5484 14 29.2949C15.6569 30.3779 17.6089 31 19.7197 31C26.5743 31 30.2967 25.2396 30.2967 20.2627C30.2967 20.1014 30.2967 19.9401 30.274 19.7788C31.0457 19.2028 31.6813 18.5346 32.1579 17.7742Z" fill="white"/>
</svg>
